<svg width="32" height="835" viewBox="0 0 32 835" fill="none" xmlns="http://www.w3.org/2000/svg">
<g filter="url(#filter0_df_257_80)">
<mask id="path-1-inside-1_257_80" fill="white">
<path fill-rule="evenodd" clip-rule="evenodd" d="M16 26C22.6274 26 28 20.6274 28 14C28 7.37258 22.6274 2 16 2C9.37258 2 4 7.37258 4 14C4 20.6274 9.37258 26 16 26ZM16 294C22.6274 294 28 288.627 28 282C28 275.373 22.6274 270 16 270C9.37258 270 4 275.373 4 282C4 288.627 9.37258 294 16 294ZM17 41V57H15V41H17ZM17 89V73H15V89H17ZM17 104V120H15V104H17ZM17 152V136H15V152H17ZM17 168V184H15V168H17ZM17 216V200H15V216H17ZM17 231V247H15V231H17ZM16 565C22.6274 565 28 559.627 28 553C28 546.373 22.6274 541 16 541C9.37258 541 4 546.373 4 553C4 559.627 9.37258 565 16 565ZM17 310V326H15V310H17ZM17 358V342H15V358H17ZM17 373V389H15V373H17ZM17 421V405H15V421H17ZM17 437V453H15V437H17ZM17 485V469H15V485H17ZM17 500V516H15V500H17ZM16 827C22.6274 827 28 821.627 28 815C28 808.373 22.6274 803 16 803C9.37258 803 4 808.373 4 815C4 821.627 9.37258 827 16 827Z"/>
</mask>
<path fill-rule="evenodd" clip-rule="evenodd" d="M16 26C22.6274 26 28 20.6274 28 14C28 7.37258 22.6274 2 16 2C9.37258 2 4 7.37258 4 14C4 20.6274 9.37258 26 16 26ZM16 294C22.6274 294 28 288.627 28 282C28 275.373 22.6274 270 16 270C9.37258 270 4 275.373 4 282C4 288.627 9.37258 294 16 294ZM17 41V57H15V41H17ZM17 89V73H15V89H17ZM17 104V120H15V104H17ZM17 152V136H15V152H17ZM17 168V184H15V168H17ZM17 216V200H15V216H17ZM17 231V247H15V231H17ZM16 565C22.6274 565 28 559.627 28 553C28 546.373 22.6274 541 16 541C9.37258 541 4 546.373 4 553C4 559.627 9.37258 565 16 565ZM17 310V326H15V310H17ZM17 358V342H15V358H17ZM17 373V389H15V373H17ZM17 421V405H15V421H17ZM17 437V453H15V437H17ZM17 485V469H15V485H17ZM17 500V516H15V500H17ZM16 827C22.6274 827 28 821.627 28 815C28 808.373 22.6274 803 16 803C9.37258 803 4 808.373 4 815C4 821.627 9.37258 827 16 827Z" fill="#47E439"/>
<path d="M17 57V58H18V57H17ZM17 41H18V40H17V41ZM15 57H14V58H15V57ZM15 41V40H14V41H15ZM17 73H18V72H17V73ZM17 89V90H18V89H17ZM15 73V72H14V73H15ZM15 89H14V90H15V89ZM17 120V121H18V120H17ZM17 104H18V103H17V104ZM15 120H14V121H15V120ZM15 104V103H14V104H15ZM17 136H18V135H17V136ZM17 152V153H18V152H17ZM15 136V135H14V136H15ZM15 152H14V153H15V152ZM17 184V185H18V184H17ZM17 168H18V167H17V168ZM15 184H14V185H15V184ZM15 168V167H14V168H15ZM17 200H18V199H17V200ZM17 216V217H18V216H17ZM15 200V199H14V200H15ZM15 216H14V217H15V216ZM17 247V248H18V247H17ZM17 231H18V230H17V231ZM15 247H14V248H15V247ZM15 231V230H14V231H15ZM17 326V327H18V326H17ZM17 310H18V309H17V310ZM15 326H14V327H15V326ZM15 310V309H14V310H15ZM17 342H18V341H17V342ZM17 358V359H18V358H17ZM15 342V341H14V342H15ZM15 358H14V359H15V358ZM17 389V390H18V389H17ZM17 373H18V372H17V373ZM15 389H14V390H15V389ZM15 373V372H14V373H15ZM17 405H18V404H17V405ZM17 421V422H18V421H17ZM15 405V404H14V405H15ZM15 421H14V422H15V421ZM17 453V454H18V453H17ZM17 437H18V436H17V437ZM15 453H14V454H15V453ZM15 437V436H14V437H15ZM17 469H18V468H17V469ZM17 485V486H18V485H17ZM15 469V468H14V469H15ZM15 485H14V486H15V485ZM17 516V517H18V516H17ZM17 500H18V499H17V500ZM15 516H14V517H15V516ZM15 500V499H14V500H15ZM27 14C27 20.0751 22.0751 25 16 25V27C23.1797 27 29 21.1797 29 14H27ZM16 3C22.0751 3 27 7.92487 27 14H29C29 6.8203 23.1797 1 16 1V3ZM5 14C5 7.92487 9.92487 3 16 3V1C8.8203 1 3 6.8203 3 14H5ZM16 25C9.92487 25 5 20.0751 5 14H3C3 21.1797 8.8203 27 16 27V25ZM27 282C27 288.075 22.0751 293 16 293V295C23.1797 295 29 289.18 29 282H27ZM16 271C22.0751 271 27 275.925 27 282H29C29 274.82 23.1797 269 16 269V271ZM5 282C5 275.925 9.92487 271 16 271V269C8.8203 269 3 274.82 3 282H5ZM16 293C9.92487 293 5 288.075 5 282H3C3 289.18 8.8203 295 16 295V293ZM18 57V41H16V57H18ZM15 58H17V56H15V58ZM14 41V57H16V41H14ZM17 40H15V42H17V40ZM16 73V89H18V73H16ZM15 74H17V72H15V74ZM16 89V73H14V89H16ZM17 88H15V90H17V88ZM18 120V104H16V120H18ZM15 121H17V119H15V121ZM14 104V120H16V104H14ZM17 103H15V105H17V103ZM16 136V152H18V136H16ZM15 137H17V135H15V137ZM16 152V136H14V152H16ZM17 151H15V153H17V151ZM18 184V168H16V184H18ZM15 185H17V183H15V185ZM14 168V184H16V168H14ZM17 167H15V169H17V167ZM16 200V216H18V200H16ZM15 201H17V199H15V201ZM16 216V200H14V216H16ZM17 215H15V217H17V215ZM18 247V231H16V247H18ZM15 248H17V246H15V248ZM14 231V247H16V231H14ZM17 230H15V232H17V230ZM27 553C27 559.075 22.0751 564 16 564V566C23.1797 566 29 560.18 29 553H27ZM16 542C22.0751 542 27 546.925 27 553H29C29 545.82 23.1797 540 16 540V542ZM5 553C5 546.925 9.92487 542 16 542V540C8.8203 540 3 545.82 3 553H5ZM16 564C9.92487 564 5 559.075 5 553H3C3 560.18 8.8203 566 16 566V564ZM18 326V310H16V326H18ZM15 327H17V325H15V327ZM14 310V326H16V310H14ZM17 309H15V311H17V309ZM16 342V358H18V342H16ZM15 343H17V341H15V343ZM16 358V342H14V358H16ZM17 357H15V359H17V357ZM18 389V373H16V389H18ZM15 390H17V388H15V390ZM14 373V389H16V373H14ZM17 372H15V374H17V372ZM16 405V421H18V405H16ZM15 406H17V404H15V406ZM16 421V405H14V421H16ZM17 420H15V422H17V420ZM18 453V437H16V453H18ZM15 454H17V452H15V454ZM14 437V453H16V437H14ZM17 436H15V438H17V436ZM16 469V485H18V469H16ZM15 470H17V468H15V470ZM16 485V469H14V485H16ZM17 484H15V486H17V484ZM18 516V500H16V516H18ZM15 517H17V515H15V517ZM14 500V516H16V500H14ZM17 499H15V501H17V499ZM27 815C27 821.075 22.0751 826 16 826V828C23.1797 828 29 822.18 29 815H27ZM16 804C22.0751 804 27 808.925 27 815H29C29 807.82 23.1797 802 16 802V804ZM5 815C5 808.925 9.92487 804 16 804V802C8.8203 802 3 807.82 3 815H5ZM16 826C9.92487 826 5 821.075 5 815H3C3 822.18 8.8203 828 16 828V826Z" fill="#47E439" mask="url(#path-1-inside-1_257_80)"/>
</g>
<defs>
<filter id="filter0_df_257_80" x="0" y="0" width="32" height="835" filterUnits="userSpaceOnUse" color-interpolation-filters="sRGB">
<feFlood flood-opacity="0" result="BackgroundImageFix"/>
<feColorMatrix in="SourceAlpha" type="matrix" values="0 0 0 0 0 0 0 0 0 0 0 0 0 0 0 0 0 0 127 0" result="hardAlpha"/>
<feOffset dy="4"/>
<feGaussianBlur stdDeviation="2"/>
<feComposite in2="hardAlpha" operator="out"/>
<feColorMatrix type="matrix" values="0 0 0 0 0 0 0 0 0 0 0 0 0 0 0 0 0 0 0.25 0"/>
<feBlend mode="normal" in2="BackgroundImageFix" result="effect1_dropShadow_257_80"/>
<feBlend mode="normal" in="SourceGraphic" in2="effect1_dropShadow_257_80" result="shape"/>
<feGaussianBlur stdDeviation="1" result="effect2_foregroundBlur_257_80"/>
</filter>
</defs>
</svg>
